<?xml version="1.0" encoding="UTF-8" ?>
<!DOCTYPE svg PUBLIC "-//W3C//DTD SVG 1.1//EN" "http://www.w3.org/Graphics/SVG/1.1/DTD/svg11.dtd">
<svg width="512pt" height="512pt" viewBox="0 0 512 512" version="1.1" xmlns="http://www.w3.org/2000/svg">
<path fill="#fcfdfe" d=" M 0.00 0.00 L 512.00 0.00 L 512.00 512.00 L 0.00 512.00 L 0.00 0.00 Z" />
<path fill="#023567" d=" M 234.55 18.83 C 244.64 17.43 254.85 18.19 265.00 18.01 C 322.67 19.97 379.44 43.82 420.85 84.11 C 459.57 120.83 485.02 171.11 491.96 224.00 C 496.63 258.48 493.70 293.99 483.26 327.20 C 471.59 364.87 450.31 399.50 421.87 426.82 C 377.30 470.74 314.56 495.47 252.04 494.00 C 222.23 493.76 192.50 487.44 164.95 476.10 C 106.62 452.31 58.70 404.16 35.30 345.66 C 26.31 323.49 20.60 299.95 18.70 276.09 C 17.44 265.79 18.20 255.37 18.03 245.02 C 19.43 215.83 26.11 186.85 37.91 160.09 C 57.59 114.65 92.26 76.08 134.76 50.80 C 165.14 33.03 199.44 21.79 234.55 18.83 Z" />
<path fill="#fcfdfe" d=" M 249.19 40.25 C 261.53 39.65 273.86 40.79 286.11 42.18 C 323.10 47.01 358.72 61.88 388.20 84.73 C 429.36 116.21 459.23 162.55 469.25 213.53 C 472.34 227.81 473.23 242.42 473.70 256.98 C 473.17 268.37 472.83 279.79 470.90 291.06 C 465.06 329.10 448.45 365.33 423.78 394.84 C 399.94 423.39 369.02 446.21 334.15 459.41 C 314.91 466.87 294.53 471.26 273.98 472.94 C 265.66 472.99 257.34 474.34 249.03 473.31 C 208.02 472.21 167.44 458.69 133.86 435.12 C 113.06 420.68 94.89 402.55 80.09 382.02 C 56.77 349.36 42.66 310.02 40.74 269.89 C 39.21 256.27 40.59 242.55 42.03 229.00 C 47.29 185.86 66.46 144.66 95.64 112.51 C 130.18 73.65 179.07 47.53 230.87 41.83 C 236.94 40.86 243.10 41.02 249.19 40.25 Z" />
<path fill="#0368cc" d=" M 242.18 55.30 C 278.39 52.72 315.25 59.99 347.70 76.34 C 377.63 91.23 403.80 113.69 422.74 141.26 C 447.22 176.33 459.99 219.33 459.02 262.04 C 458.08 291.90 450.71 321.62 437.18 348.29 C 422.74 377.07 401.26 402.32 375.02 421.00 C 346.33 441.62 312.14 454.46 277.00 457.99 C 224.99 463.48 171.19 447.34 130.37 414.69 C 87.82 380.89 60.22 329.07 55.70 274.94 C 49.71 213.80 73.91 150.60 119.02 108.92 C 152.41 77.74 196.66 58.69 242.18 55.30 Z" />
<path fill="#fcfdfe" d=" M 244.89 147.74 C 248.56 127.41 251.92 107.01 255.78 86.72 C 262.33 87.87 268.87 89.09 275.44 90.16 C 272.22 110.57 268.28 130.88 264.87 151.26 C 272.26 152.56 279.64 153.89 287.04 155.15 C 290.72 134.83 294.09 114.45 297.91 94.16 C 304.51 95.37 311.12 96.44 317.71 97.70 C 314.24 118.07 310.44 138.38 307.05 158.77 C 330.96 162.30 355.21 170.96 372.44 188.54 C 383.44 199.38 390.14 214.54 390.02 230.05 C 390.29 252.81 379.47 274.13 365.26 291.32 C 342.39 319.76 309.00 338.51 273.66 346.55 C 270.25 368.29 266.18 389.94 262.31 411.61 C 255.70 410.42 249.07 409.32 242.47 408.06 C 245.86 388.90 249.17 369.73 252.62 350.59 C 244.90 351.66 237.13 352.25 229.35 352.55 C 226.26 369.73 223.33 386.94 220.20 404.11 C 213.58 403.09 207.01 401.81 200.41 400.69 C 202.97 384.49 206.15 368.39 208.79 352.20 C 199.52 351.60 190.29 350.48 181.14 348.86 C 165.33 346.07 149.52 343.28 133.71 340.49 C 158.30 293.31 183.14 246.27 207.67 199.08 C 226.33 202.23 244.94 205.61 263.58 208.87 C 243.00 248.08 222.43 287.28 201.89 326.50 C 225.78 330.83 250.39 324.71 271.74 313.85 C 286.40 306.33 299.60 295.71 309.27 282.30 C 317.79 270.67 325.93 257.81 327.53 243.16 C 328.69 233.85 328.12 223.92 323.52 215.55 C 319.70 208.47 312.98 203.44 305.78 200.14 C 293.80 194.45 280.47 192.99 267.57 190.60 C 225.60 183.11 183.55 175.97 141.62 168.25 C 151.31 157.01 160.98 145.75 170.80 134.63 C 195.48 139.09 220.19 143.38 244.89 147.74 Z" />
</svg>
